# xmcd
#
# Track frame offsets:
#	150
#	17865
#	32053
#	47195
#	63994
#	80817
#	97897
#	112128
#	130528
#	144018
#	158555
#	169214
#	184600
#	199872
#	214927
#	232253
#	245385
#	260425
#	261322
#	261990
#	262600
#	263235
#	263977
#	264650
#	265334
#	266024
#	266799
#	267714
#	268404
#	269051
#	269696
#	270451
#	271131
#	271846
#	272551
#	273356
#	274296
#	275031
#	275711
#	276406
#	277216
#	277961
#	278726
#	279471
#
# Disc length: 3734 seconds
#
# Revision: 1
# Processed by: cddbd v1.5.2PL0 Copyright (c) Steve Scherf et al.
# Submitted via: audiograbber 1.83.01
#
DISCID=e30e942c
DTITLE=Various Artist - CDX Volume 628 (January 25, 2016)
DYEAR=2016
DGENRE=Country
TTITLE0=Brandy Clark - Girl Next Door
TTITLE1=Billy Currington - It Don't Hurt Like It Used To
TTITLE2=Dierks Bentley - Somewhere On A Beach
TTITLE3=Chris Young (with Cassadee Pope) - Think Of You
TTITLE4=Lorrie Morgan - How Does It Feel
TTITLE5=Charee White - Alive
TTITLE6=Simba Jordan - Country Thang
TTITLE7=Corinne Cook - Dressed Up For Goodbye
TTITLE8=David Holler - Drive On
TTITLE9=Ashland Belle - Fastest Car
TTITLE10=Cody Joe Hodges - Hellbent On Loving You
TTITLE11=James Robert Webb - How That Feels
TTITLE12=Diane Pari - I Saw Red
TTITLE13=Broseph E. Lee - Right Where She Wants Me
TTITLE14=Dick Barnes - Run Remus Run
TTITLE15=Nick Smith - She Ain't L.A.
TTITLE16=Diana Upton-Hill - Southern Gentleman
TTITLE17=Greg Sterling - Radio Liner - The Best In Today's Hot New Country
TTITLE18=Greg Sterling - Radio Liner - Today's Best Country
TTITLE19=Greg Sterling - Radio Liner - Kickin' Country
TTITLE20=Greg Sterling - Radio Liner - Hometown Country
TTITLE21=Greg Sterling - Radio Liner - Super Country
TTITLE22=Greg Sterling - Radio Liner - Today's Hot Country Music
TTITLE23=Greg Sterling - Radio Liner - The Best In Today's Country Music
TTITLE24=Greg Sterling - Radio Liner - More Of The Country You Love
TTITLE25=Greg Sterling - Radio Liner - Howlin' Country
TTITLE26=Johnny Reed Foley - Radio Liner - The Best In Today's Hot New Country
TTITLE27=Johnny Reed Foley - Radio Liner - Today's Best Country
TTITLE28=Johnny Reed Foley - Radio Liner - Kickin' Country
TTITLE29=Johnny Reed Foley - Radio Liner - Hometown Country
TTITLE30=Johnny Reed Foley - Radio Liner - Super Country
TTITLE31=Johnny Reed Foley - Radio Liner - Today's Hot Country Music
TTITLE32=Johnny Reed Foley - Radio Liner - The Best In Today's Country Music
TTITLE33=Johnny Reed Foley - Radio Liner - More Of The Country You Love
TTITLE34=Johnny Reed Foley - Radio Liner - Howlin' Country
TTITLE35=Two Miles South - Radio Liner - The Best In Today's Hot New Country/Ou
TTITLE35=r New Single
TTITLE36=Two Miles South - Radio Liner - Today's Best Country
TTITLE37=Two Miles South - Radio Liner - Kickin' Country
TTITLE38=Two Miles South - Radio Liner - Hometown Country
TTITLE39=Two Miles South - Radio Liner - Super Country
TTITLE40=Two Miles South - Radio Liner - Today's Hot Country Music
TTITLE41=Two Miles South - Radio Liner - The Best In Today's Country Music
TTITLE42=Two Miles South - Radio Liner - More Of The Country You Love
TTITLE43=Two Miles South - Radio Liner - Howlin' Country
EXTD=
EXTT0=
EXTT1=
EXTT2=
EXTT3=
EXTT4=
EXTT5=
EXTT6=
EXTT7=
EXTT8=
EXTT9=
EXTT10=
EXTT11=
EXTT12=
EXTT13=
EXTT14=
EXTT15=
EXTT16=
EXTT17=
EXTT18=
EXTT19=
EXTT20=
EXTT21=
EXTT22=
EXTT23=
EXTT24=
EXTT25=
EXTT26=
EXTT27=
EXTT28=
EXTT29=
EXTT30=
EXTT31=
EXTT32=
EXTT33=
EXTT34=
EXTT35=
EXTT36=
EXTT37=
EXTT38=
EXTT39=
EXTT40=
EXTT41=
EXTT42=
EXTT43=
PLAYORDER=
